<svg xmlns="http://www.w3.org/2000/svg" xmlns:xlink="http://www.w3.org/1999/xlink" width="1920" zoomAndPan="magnify" viewBox="0 0 1440 599.999999" height="800" preserveAspectRatio="xMidYMid meet" version="1.0"><defs><g><g id="id1"/></g></defs><path stroke-linecap="butt" transform="matrix(1.499895, 0, 0, 1.499895, 126.469433, 333.075505)" fill="none" stroke-linejoin="miter" d="M 36.283326 119.999702 C 35.160852 119.999702 34.267561 119.655928 33.600847 118.968381 C 32.960178 118.257393 32.637239 117.283367 32.637239 116.043697 L 32.637239 18.708781 C 32.637239 17.583703 32.869026 16.771146 33.327391 16.265902 C 33.809195 15.739824 34.564456 15.47418 35.595778 15.47418 L 75.046447 15.47418 C 76.262678 15.47418 77.122113 15.63565 77.627357 15.955985 C 78.153435 16.27632 78.6118 16.966472 79.002453 18.021233 L 93.654517 62.803003 C 93.930577 63.558265 94.250912 63.935895 94.618125 63.935895 C 94.915021 63.935895 95.201499 63.558265 95.47756 62.803003 L 108.582641 19.568216 C 109.314463 16.838859 110.577572 15.47418 112.364155 15.47418 L 153.088351 15.47418 C 154.783782 15.47418 155.632799 16.461229 155.632799 18.43272 L 155.632799 115.908271 C 155.632799 117.421398 155.278608 118.486576 154.567621 119.106411 C 153.856634 119.702807 152.71072 119.999702 151.127276 119.999702 L 127.29228 119.999702 C 125.893745 119.999702 124.930136 119.723642 124.404058 119.174124 C 123.898814 118.601167 123.646192 117.707876 123.646192 116.491645 L 123.646192 53.20598 C 123.646192 52.471553 123.463888 52.10434 123.096675 52.10434 C 122.61487 52.10434 122.23724 52.528849 121.961179 53.377867 L 101.668097 117.455254 C 101.003988 119.150685 99.878909 119.999702 98.29807 119.999702 L 83.507975 119.999702 C 81.812544 119.999702 80.677049 119.150685 80.104092 117.455254 L 59.844866 54.479506 C 59.545366 53.539336 59.214614 53.067949 58.847401 53.067949 C 58.365596 53.067949 58.125996 53.58361 58.125996 54.614932 L 58.125996 116.905737 C 58.125996 118.119363 57.941087 118.944941 57.573874 119.379868 C 57.206661 119.793959 56.360248 119.999702 55.029426 119.999702 Z M 169.000919 119.999702 C 168.243054 119.999702 167.625823 119.747081 167.144019 119.244441 C 166.685654 118.715759 166.456471 117.981332 166.456471 117.041163 C 166.456471 116.377054 166.604919 115.619189 166.901815 114.772775 L 200.987526 18.708781 C 201.445891 17.49255 201.961552 16.656555 202.534509 16.198189 C 203.11007 15.716385 204.003362 15.47418 205.219592 15.47418 L 232.974133 15.47418 C 234.099211 15.47418 235.107094 15.830976 236.000386 16.541963 C 236.896281 17.229511 237.573412 18.135825 238.031777 19.258299 L 271.841428 115.218119 C 272.023732 115.975984 272.114885 116.538523 272.114885 116.905737 C 272.114885 117.75215 271.93258 118.486576 271.565367 119.106411 C 271.198154 119.702807 270.635615 119.999702 269.880354 119.999702 L 242.261239 119.999702 C 240.656961 119.999702 239.625639 119.197563 239.164669 117.593285 L 233.661681 101.391633 C 233.388224 100.750964 233.122581 100.316037 232.872563 100.086855 C 232.643381 99.834233 232.20585 99.70662 231.56518 99.70662 L 201.675074 99.70662 C 200.5526 99.70662 199.85203 100.222281 199.578574 101.256207 L 193.799525 117.903202 C 193.226568 119.301737 192.101489 119.999702 190.429498 119.999702 Z M 224.512605 75.76745 C 225.546531 75.76745 226.062192 75.298667 226.062192 74.358497 C 226.062192 74.176193 225.968436 73.704806 225.786131 72.949545 L 217.324603 48.872344 C 217.142299 48.39054 216.855821 48.15094 216.465168 48.15094 C 216.097955 48.15094 215.824499 48.39054 215.63959 48.872344 L 207.040032 72.811514 C 206.857727 73.178727 206.766575 73.64751 206.766575 74.220467 C 206.766575 75.251789 207.329114 75.76745 208.451589 75.76745 Z M 373.291214 15.47418 C 374.68975 15.47418 375.387715 16.265902 375.387715 17.849346 L 375.387715 117.455254 C 375.387715 118.210515 375.077797 118.83035 374.460567 119.312154 C 373.864171 119.77052 373.095888 119.999702 372.155719 119.999702 L 352.860102 119.999702 C 352.011084 119.999702 351.323536 119.861672 350.797458 119.588215 C 350.292214 119.288715 349.706236 118.726176 349.042127 117.903202 L 310.312862 65.347452 C 309.924814 64.865647 309.591458 64.670321 309.315397 64.761473 C 309.04194 64.85523 308.90391 65.141708 308.90391 65.623513 L 308.90391 116.905737 C 308.995062 118.028211 308.778901 118.83035 308.250218 119.312154 C 307.744975 119.77052 306.828244 119.999702 305.497422 119.999702 L 286.339835 119.999702 C 284.00113 119.999702 282.831778 119.059533 282.831778 117.179193 L 282.831778 18.708781 C 282.831778 16.552381 283.865704 15.47418 285.928348 15.47418 L 308.90391 15.47418 C 310.12014 15.47418 311.023849 15.63565 311.620245 15.955985 C 312.24008 16.27632 312.927628 16.966472 313.685493 18.021233 L 347.495144 65.071391 C 348.0681 65.896969 348.583761 66.311061 349.042127 66.311061 C 349.523931 66.311061 349.763531 65.701643 349.763531 64.488017 L 349.763531 18.43272 C 349.763531 16.461229 350.797458 15.47418 352.860102 15.47418 Z M 388.766253 119.999702 C 388.008387 119.999702 387.391157 119.747081 386.909352 119.244441 C 386.450987 118.715759 386.221804 117.981332 386.221804 117.041163 C 386.221804 116.377054 386.370252 115.619189 386.667148 114.772775 L 420.752859 18.708781 C 421.211225 17.49255 421.726886 16.656555 422.299842 16.198189 C 422.872799 15.716385 423.768695 15.47418 424.982321 15.47418 L 452.739466 15.47418 C 453.864544 15.47418 454.872427 15.830976 455.765719 16.541963 C 456.661615 17.229511 457.336141 18.135825 457.797111 19.258299 L 491.606761 115.218119 C 491.789066 115.975984 491.880218 116.538523 491.880218 116.905737 C 491.880218 117.75215 491.697913 118.486576 491.3307 119.106411 C 490.963487 119.702807 490.400948 119.999702 489.645687 119.999702 L 462.026572 119.999702 C 460.422294 119.999702 459.388367 119.197563 458.930002 117.593285 L 453.427014 101.391633 C 453.153557 100.750964 452.887914 100.316037 452.637896 100.086855 C 452.408714 99.834233 451.971183 99.70662 451.330514 99.70662 L 421.440407 99.70662 C 420.317933 99.70662 419.617363 100.222281 419.343907 101.256207 L 413.564858 117.903202 C 412.991901 119.301737 411.866823 119.999702 410.194831 119.999702 Z M 444.277938 75.76745 C 445.311864 75.76745 445.827525 75.298667 445.827525 74.358497 C 445.827525 74.176193 445.733769 73.704806 445.551464 72.949545 L 437.089937 48.872344 C 436.907632 48.39054 436.621154 48.15094 436.230502 48.15094 C 435.863289 48.15094 435.587228 48.39054 435.404923 48.872344 L 426.805365 72.811514 C 426.62306 73.178727 426.531908 73.64751 426.531908 74.220467 C 426.531908 75.251789 427.091843 75.76745 428.216922 75.76745 Z M 548.790438 121.411259 C 539.021528 121.411259 530.401134 119.163707 522.92405 114.668601 C 515.47301 110.152661 509.706982 103.88139 505.623364 95.854789 C 501.54235 87.807352 499.503145 78.577542 499.503145 68.167961 C 499.503145 57.458881 501.656941 48.023326 505.969742 39.861299 C 510.303378 31.675832 516.345466 25.334243 524.093403 20.841742 C 531.843943 16.323198 540.696124 14.065228 550.647339 14.065228 C 558.718214 14.065228 565.919238 15.544498 572.247804 18.500433 C 578.597205 21.458973 583.722563 25.28997 587.621273 29.988214 C 591.519982 34.668228 594.074848 39.642533 595.291079 44.916339 C 595.567139 46.041417 595.702566 46.934709 595.702566 47.598818 C 595.702566 48.447835 595.520261 49.010374 595.153048 49.283831 C 594.785835 49.559892 594.179022 49.742196 593.330004 49.835953 L 569.218947 53.515897 C 568.187625 53.515897 567.533934 53.330988 567.260477 52.963775 C 566.984416 52.575727 566.697938 51.817862 566.398438 50.695388 C 565.666616 46.361752 563.911285 42.819838 561.137654 40.067042 C 558.364023 37.293411 554.624179 35.905293 549.925934 35.905293 C 544.399507 35.905293 540.201297 38.277855 537.336514 43.025582 C 534.469127 47.747266 533.036735 55.84158 533.036735 67.308526 C 533.036735 79.322385 534.583718 87.679739 537.680288 92.380588 C 540.776858 97.081437 545.235503 99.433163 551.058826 99.433163 C 558.671336 99.433163 563.739398 96.141267 566.263012 89.560079 L 566.708355 88.289157 L 566.984416 87.187517 C 566.984416 86.3385 566.468755 85.913991 565.437433 85.913991 L 552.194322 85.913991 C 551.163 85.913991 550.428573 85.684808 549.993647 85.226443 C 549.579556 84.744639 549.373812 83.942499 549.373812 82.820025 L 549.373812 69.266996 C 549.373812 67.686157 550.36086 66.894435 552.332352 66.894435 L 591.783021 67.170496 C 593.457617 67.170496 594.765 67.571565 595.702566 68.373705 C 596.642735 69.175844 597.114122 70.230605 597.114122 71.537988 L 597.114122 117.593285 C 597.114122 118.257393 596.874522 118.83035 596.392718 119.312154 C 595.934353 119.77052 595.382231 119.999702 594.741561 119.999702 L 589.376603 119.999702 C 587.678568 119.999702 586.175859 119.106411 584.868476 117.317224 L 579.230062 109.165613 C 579.136306 108.868718 578.954001 108.717665 578.67794 108.717665 C 578.495636 108.717665 578.162279 108.95987 577.680475 109.441674 C 575.250618 111.780379 572.92233 113.751871 570.698217 115.356149 C 568.497543 116.939593 565.562442 118.348546 561.892915 119.588215 C 558.249432 120.801842 553.879335 121.411259 548.790438 121.411259 Z M 609.805112 18.708781 C 609.805112 16.552381 610.698404 15.47418 612.487591 15.47418 L 688.56842 15.47418 C 690.240412 15.47418 691.079012 16.461229 691.079012 18.43272 L 690.940981 34.769798 C 690.940981 37.314246 689.724751 38.587772 687.294894 38.587772 L 645.023715 38.587772 C 642.867315 38.587772 641.791719 39.470646 641.791719 41.236395 L 641.791719 53.20598 C 641.791719 54.146149 642.020901 54.880576 642.479267 55.406654 C 642.961071 55.935337 643.578302 56.198376 644.336167 56.198376 L 669.68429 56.198376 C 671.655782 56.198376 672.64283 57.125524 672.64283 58.985029 L 672.64283 76.457602 C 672.64283 78.061881 671.793812 78.86402 670.098381 78.86402 L 644.02625 78.86402 C 643.38558 78.86402 642.84648 79.059346 642.408949 79.449998 C 641.997462 79.814607 641.791719 80.275577 641.791719 80.825094 L 641.791719 94.927641 C 641.791719 95.682902 641.90631 96.198563 642.135493 96.474624 C 642.364675 96.74808 642.810019 96.886111 643.476732 96.886111 L 689.255968 96.886111 C 691.318612 96.886111 692.349934 97.782006 692.349934 99.568589 L 692.349934 116.905737 C 692.349934 117.845906 692.063455 118.601167 691.490499 119.174124 C 690.940981 119.723642 690.102381 119.999702 688.979907 119.999702 L 613.620482 119.999702 C 612.201113 119.999702 611.203647 119.723642 610.628086 119.174124 C 610.078569 118.601167 609.805112 117.707876 609.805112 116.491645 Z M 795.752982 115.49418 C 795.935286 115.861393 796.026438 116.377054 796.026438 117.041163 C 796.026438 117.89018 795.763399 118.601167 795.234716 119.174124 C 794.732077 119.723642 794.065364 119.999702 793.239785 119.999702 L 765.896732 119.999702 C 763.92524 119.999702 762.651714 119.015259 762.078757 117.041163 L 748.83825 80.687064 C 748.562189 79.929198 748.093406 79.369263 747.426693 79.00205 C 746.786023 78.634837 745.798975 78.452533 744.470758 78.452533 L 738.004161 78.452533 C 737.431204 78.452533 737.006695 78.634837 736.730634 79.00205 C 736.454573 79.369263 736.319147 79.700016 736.319147 79.999516 L 736.319147 115.908271 C 736.319147 117.421398 735.938912 118.486576 735.183651 119.106411 C 734.425786 119.702807 733.256434 119.999702 731.675594 119.999702 L 707.976024 119.999702 C 706.577489 119.999702 705.61388 119.723642 705.087802 119.174124 C 704.582558 118.601167 704.329936 117.707876 704.329936 116.491645 L 704.329936 18.708781 C 704.329936 16.552381 705.225832 15.47418 707.015019 15.47418 L 754.065177 15.47418 C 767.685919 15.47418 778.243947 18.078529 785.741866 23.282017 C 793.263225 28.488109 797.023904 35.83758 797.023904 45.33043 C 797.023904 51.817862 795.305034 57.596911 791.864689 62.664973 C 788.447784 67.733035 784.022997 71.298388 778.587721 73.361032 C 778.014765 73.657928 777.728287 74.129315 777.728287 74.769984 C 777.728287 75.046045 777.819439 75.470554 778.004347 76.043511 Z M 752.794255 57.435441 C 756.370025 57.435441 759.122822 56.531733 761.047435 54.719106 C 762.974653 52.885645 763.935658 50.40891 763.935658 47.2889 C 763.935658 43.827721 762.779327 41.132221 760.464061 39.207607 C 758.16963 37.280389 755.325682 36.319385 751.932216 36.319385 L 739.551144 36.319385 C 738.334913 36.319385 737.4885 36.535546 737.006695 36.970472 C 736.54833 37.384563 736.319147 38.105968 736.319147 39.13729 L 736.319147 54.479506 C 736.319147 55.510828 736.478013 56.266089 736.798347 56.747894 C 737.121287 57.206259 737.751539 57.435441 738.691709 57.435441 Z M 752.794255 57.435441 " stroke="rgb(100%, 100%, 100%)" stroke-width="5.28315" stroke-opacity="1" stroke-miterlimit="4"/><g fill="rgb(100%, 100%, 100%)" fill-opacity="1"><g transform="translate(311.560635, 250.918488)"><g><path d="M 17.828125 0 C 15.992188 0 14.539062 -0.566406 13.46875 -1.703125 C 12.40625 -2.847656 11.875 -4.410156 11.875 -6.390625 L 11.875 -164.28125 C 11.875 -166.101562 12.253906 -167.429688 13.015625 -168.265625 C 13.785156 -169.109375 15.003906 -169.53125 16.671875 -169.53125 L 80.65625 -169.53125 C 82.632812 -169.53125 84.039062 -169.265625 84.875 -168.734375 C 85.71875 -168.203125 86.441406 -167.097656 87.046875 -165.421875 L 110.8125 -92.765625 C 111.269531 -91.546875 111.804688 -90.9375 112.421875 -90.9375 C 112.867188 -90.9375 113.320312 -91.546875 113.78125 -92.765625 L 135.03125 -162.90625 C 136.25 -167.320312 138.304688 -169.53125 141.203125 -169.53125 L 207.234375 -169.53125 C 209.972656 -169.53125 211.34375 -167.929688 211.34375 -164.734375 L 211.34375 -6.625 C 211.34375 -4.1875 210.769531 -2.472656 209.625 -1.484375 C 208.488281 -0.492188 206.625 0 204.03125 0 L 165.421875 0 C 163.140625 0 161.578125 -0.453125 160.734375 -1.359375 C 159.898438 -2.273438 159.484375 -3.726562 159.484375 -5.71875 L 159.484375 -108.296875 C 159.484375 -109.515625 159.175781 -110.125 158.5625 -110.125 C 157.800781 -110.125 157.191406 -109.441406 156.734375 -108.078125 L 123.84375 -4.109375 C 122.769531 -1.367188 120.941406 0 118.359375 0 L 94.359375 0 C 91.617188 0 89.789062 -1.367188 88.875 -4.109375 L 55.984375 -106.25 C 55.523438 -107.769531 54.988281 -108.53125 54.375 -108.53125 C 53.613281 -108.53125 53.234375 -107.691406 53.234375 -106.015625 L 53.234375 -5.03125 C 53.234375 -3.050781 52.925781 -1.71875 52.3125 -1.03125 C 51.707031 -0.34375 50.335938 0 48.203125 0 Z M 17.828125 0 "/></g></g></g><g fill="rgb(100%, 100%, 100%)" fill-opacity="1"><g transform="translate(534.781754, 250.918488)"><g><path d="M 89.34375 2.28125 C 72.738281 2.28125 58.226562 -1.257812 45.8125 -8.34375 C 33.394531 -15.425781 23.832031 -25.476562 17.125 -38.5 C 10.425781 -51.519531 7.078125 -66.789062 7.078125 -84.3125 C 7.078125 -101.832031 10.46875 -117.175781 17.25 -130.34375 C 24.03125 -143.519531 33.625 -153.722656 46.03125 -160.953125 C 58.445312 -168.191406 72.882812 -171.8125 89.34375 -171.8125 C 105.632812 -171.8125 119.945312 -168.191406 132.28125 -160.953125 C 144.625 -153.722656 154.1875 -143.519531 160.96875 -130.34375 C 167.75 -117.175781 171.140625 -101.832031 171.140625 -84.3125 C 171.140625 -66.945312 167.785156 -51.710938 161.078125 -38.609375 C 154.378906 -25.515625 144.859375 -15.425781 132.515625 -8.34375 C 120.179688 -1.257812 105.789062 2.28125 89.34375 2.28125 Z M 89.34375 -33.359375 C 96.039062 -33.359375 101.367188 -34.992188 105.328125 -38.265625 C 109.285156 -41.546875 112.175781 -46.84375 114 -54.15625 C 115.832031 -61.46875 116.75 -71.289062 116.75 -83.625 C 116.75 -102.507812 114.613281 -116.066406 110.34375 -124.296875 C 106.082031 -132.523438 99.082031 -136.640625 89.34375 -136.640625 C 79.4375 -136.640625 72.3125 -132.523438 67.96875 -124.296875 C 63.632812 -116.066406 61.46875 -102.507812 61.46875 -83.625 C 61.46875 -71.289062 62.378906 -61.46875 64.203125 -54.15625 C 66.035156 -46.84375 68.96875 -41.546875 73 -38.265625 C 77.039062 -34.992188 82.488281 -33.359375 89.34375 -33.359375 Z M 89.34375 -33.359375 "/></g></g></g><g fill="rgb(100%, 100%, 100%)" fill-opacity="1"><g transform="translate(712.993104, 250.918488)"><g><path d="M 45.015625 -169.53125 C 63.140625 -169.53125 74.410156 -169.457031 78.828125 -169.3125 C 108.523438 -168.238281 130.988281 -160.203125 146.21875 -145.203125 C 161.457031 -130.203125 169.078125 -110.207031 169.078125 -85.21875 C 169.078125 -68.46875 165.648438 -53.691406 158.796875 -40.890625 C 151.941406 -28.097656 141.734375 -18.082031 128.171875 -10.84375 C 114.617188 -3.613281 98.09375 0 78.59375 0 L 18.5 0 C 16.21875 0 14.539062 -0.53125 13.46875 -1.59375 C 12.40625 -2.664062 11.875 -4.421875 11.875 -6.859375 L 11.875 -163.828125 C 11.875 -165.953125 12.332031 -167.429688 13.25 -168.265625 C 14.164062 -169.109375 15.765625 -169.53125 18.046875 -169.53125 Z M 66.03125 -133.65625 C 65.269531 -133.65625 64.695312 -133.425781 64.3125 -132.96875 C 63.9375 -132.519531 63.75 -131.6875 63.75 -130.46875 L 63.75 -39.296875 C 63.75 -37.929688 63.976562 -37.019531 64.4375 -36.5625 C 64.894531 -36.101562 65.734375 -35.875 66.953125 -35.875 L 68.546875 -35.875 C 83.628906 -35.875 95.09375 -39.796875 102.9375 -47.640625 C 110.78125 -55.484375 114.703125 -68.238281 114.703125 -85.90625 C 114.703125 -101.144531 111.726562 -112.492188 105.78125 -119.953125 C 99.84375 -127.421875 91.160156 -131.6875 79.734375 -132.75 Z M 66.03125 -133.65625 "/></g></g></g><g fill="rgb(100%, 100%, 100%)" fill-opacity="1"><g transform="translate(889.148141, 250.918488)"><g><path d="M 11.875 -164.28125 C 11.875 -167.78125 13.320312 -169.53125 16.21875 -169.53125 L 139.609375 -169.53125 C 142.347656 -169.53125 143.71875 -167.929688 143.71875 -164.734375 L 143.484375 -138.234375 C 143.484375 -134.117188 141.503906 -132.0625 137.546875 -132.0625 L 69 -132.0625 C 65.5 -132.0625 63.75 -130.613281 63.75 -127.71875 L 63.75 -108.296875 C 63.75 -106.773438 64.128906 -105.59375 64.890625 -104.75 C 65.648438 -103.914062 66.640625 -103.5 67.859375 -103.5 L 108.984375 -103.5 C 112.179688 -103.5 113.78125 -101.976562 113.78125 -98.9375 L 113.78125 -70.609375 C 113.78125 -68.015625 112.410156 -66.71875 109.671875 -66.71875 L 67.40625 -66.71875 C 66.332031 -66.71875 65.453125 -66.410156 64.765625 -65.796875 C 64.085938 -65.191406 63.75 -64.429688 63.75 -63.515625 L 63.75 -40.671875 C 63.75 -39.453125 63.9375 -38.613281 64.3125 -38.15625 C 64.695312 -37.695312 65.421875 -37.46875 66.484375 -37.46875 L 140.75 -37.46875 C 144.09375 -37.46875 145.765625 -36.019531 145.765625 -33.125 L 145.765625 -5.03125 C 145.765625 -3.5 145.304688 -2.273438 144.390625 -1.359375 C 143.484375 -0.453125 142.117188 0 140.296875 0 L 18.046875 0 C 15.765625 0 14.164062 -0.453125 13.25 -1.359375 C 12.332031 -2.273438 11.875 -3.726562 11.875 -5.71875 Z M 11.875 -164.28125 "/></g></g></g><g fill="rgb(100%, 100%, 100%)" fill-opacity="1"><g transform="translate(1042.455589, 250.918488)"><g><path d="M 11.875 -164.28125 C 11.875 -165.957031 12.253906 -167.25 13.015625 -168.15625 C 13.785156 -169.070312 14.851562 -169.53125 16.21875 -169.53125 L 59.640625 -169.53125 C 62.378906 -169.53125 63.75 -167.929688 63.75 -164.734375 L 63.75 -40.671875 C 63.75 -39.453125 63.9375 -38.613281 64.3125 -38.15625 C 64.695312 -37.695312 65.421875 -37.46875 66.484375 -37.46875 L 135.265625 -37.46875 C 138.765625 -37.46875 140.515625 -36.019531 140.515625 -33.125 L 140.515625 -5.03125 C 140.515625 -3.5 140.019531 -2.273438 139.03125 -1.359375 C 138.039062 -0.453125 136.632812 0 134.8125 0 L 18.046875 0 C 15.765625 0 14.164062 -0.453125 13.25 -1.359375 C 12.332031 -2.273438 11.875 -3.726562 11.875 -5.71875 Z M 11.875 -164.28125 "/></g></g></g></svg>